<?xml version="1.0" encoding="utf-8"?>
<!-- Svg Vector Icons : http://www.onlinewebfonts.com/icon -->
<!DOCTYPE svg PUBLIC "-//W3C//DTD SVG 1.1//EN" "http://www.w3.org/Graphics/SVG/1.1/DTD/svg11.dtd">
<svg version="1.1" xmlns="http://www.w3.org/2000/svg" xmlns:xlink="http://www.w3.org/1999/xlink" x="0px" y="0px" viewBox="0 0 1000 1000" enable-background="new 0 0 1000 1000" xml:space="preserve">
<metadata> Svg Vector Icons : http://www.onlinewebfonts.com/icon </metadata>
<g><g><path d="M989.8,497.5c-2-66.8-28.7-121.9-80.3-164.2C861.6,294,805.1,273,745.6,259.1c-80.6-18.7-162.6-23.7-245-23.5c-24.6,0.7-49.2,0.6-73.8,1.7c-47.8,2.2-95.3,6.6-142.3,15.6c-63,12-123.6,30.7-177,67.9C56.9,356,24.4,403,13.9,464.3c-8.7,50.5-2.3,99.5,15,147.2c23.1,63.6,67.1,107,130.3,131c43,16.4,87.8,21.3,133.5,21.8c46.7,0.5,87.7-13.4,124-42.5c18.4-14.7,34.6-32.1,53.8-45.7c20.1-14.3,37-14.6,57.6-1c14.1,9.3,26.2,21.2,38.8,32.5c30.6,27.6,64.4,49.4,106.3,54.3c54.1,6.3,107.4,1.2,159.2-16.2C894,724.9,939.2,685.7,965.7,626C983.9,585.1,991.2,542.1,989.8,497.5z M274.6,591.4c-69.2,0-125.3-66.2-125.3-66.2S205.4,459,274.6,459c69.2,0,125.3,66.2,125.3,66.2S343.8,591.4,274.6,591.4z M747.5,591.4c-69.2,0-125.3-66.2-125.3-66.2S678.4,459,747.5,459c69.2,0,125.3,66.2,125.3,66.2S816.7,591.4,747.5,591.4z"/></g><g></g><g></g><g></g><g></g><g></g><g></g><g></g><g></g><g></g><g></g><g></g><g></g><g></g><g></g><g></g></g>
</svg>